<svg width="51" height="46" viewBox="0 0 51 46" fill="none" xmlns="http://www.w3.org/2000/svg">
<path d="M24.8033 4.65663C25.2801 4.93847 25.6997 5.29292 26.1012 5.6675C26.9566 6.46606 27.6758 7.37749 28.3558 8.32065C28.9737 9.17839 29.6065 10.0227 30.3829 10.7554C31.9712 12.2537 33.7838 13.4006 35.8451 14.1644C37.0001 14.5927 38.16 15.0069 39.3106 15.4468C42.1626 16.5369 44.4651 18.3506 46.356 20.6841C48.3148 23.1018 49.5567 25.8501 50.1827 28.8724C50.491 30.3621 50.6247 31.8677 50.5799 33.3862C50.4923 36.3956 49.806 39.2562 48.3396 41.9179C47.9524 42.6207 47.5122 43.2911 47.0106 43.9207C46.348 44.7534 45.4833 45.2927 44.4526 45.5831C44.3737 45.6057 44.2935 45.624 44.2139 45.6441C44.1723 45.5685 44.0983 45.5929 44.0337 45.5892C43.6172 45.5679 43.2001 45.5563 42.7848 45.5233C42.2782 45.4831 41.7741 45.4172 41.2675 45.3775C40.8013 45.3409 40.3381 45.2781 39.8757 45.2159C39.103 45.1115 38.3334 44.9804 37.5713 44.8181C36.7315 44.6394 35.9023 44.4167 35.0805 44.1678C34.2929 43.9292 33.5507 43.587 32.8439 43.174C32.2994 42.8555 31.7648 42.52 31.3085 42.0808C31.27 42.0435 31.2321 42.0118 31.1742 42.0204C31.2377 41.8959 31.1419 41.8514 31.0586 41.8032C30.4631 41.4579 29.8415 41.1596 29.2242 40.8545C28.6132 40.552 28.0257 40.2146 27.5546 39.7137C27.3905 39.5386 27.2531 39.3392 27.0566 39.194C27.02 39.1671 26.9833 39.1397 26.9416 39.1092C26.7583 39.4435 26.6054 39.7827 26.4717 40.1304C26.2429 40.0999 26.0148 40.0633 25.7854 40.0395C25.1048 39.9706 24.4334 39.8443 23.7633 39.7192C23.1119 39.5978 22.4654 39.4514 21.8251 39.2775C20.7839 38.9939 19.8048 38.5717 18.8681 38.0458C18.6362 37.9153 18.4249 37.7493 18.1725 37.6536C17.9437 36.7159 17.6721 35.7923 17.2898 34.9016C16.8696 33.923 16.3573 32.9897 15.8619 32.0477C14.84 30.1053 13.8143 28.1647 12.7899 26.2229C12.489 25.6531 12.1397 25.1156 11.7275 24.616C11.6486 24.5202 11.5696 24.5062 11.4609 24.5171C10.8803 24.5781 10.2997 24.6355 9.71908 24.694C9.6936 24.6965 9.66749 24.6922 9.642 24.691C9.63765 24.2054 9.573 23.7247 9.52079 23.2427C9.47665 22.8364 9.44557 22.4283 9.39087 22.0238C9.297 21.3344 9.19319 20.6463 9.08628 19.9588C8.98495 19.3109 8.88176 18.663 8.76552 18.0176C8.65176 17.3868 8.5293 16.7572 8.39379 16.1306C8.17312 15.1137 7.94996 14.0967 7.69509 13.0877C7.47442 12.214 7.24939 11.3423 7.0082 10.4735C6.68558 9.31138 6.33934 8.15654 5.96389 7.01024C5.83335 6.61065 5.70281 6.21106 5.57227 5.81147C6.16218 5.55219 6.77261 5.34599 7.38491 5.14589C9.23982 4.53949 11.1376 4.08805 13.0391 3.65064C13.9498 3.44139 14.8673 3.26447 15.7935 3.13514C15.9334 3.11561 15.8694 3.04973 15.8476 2.99055C15.4579 1.92539 15.8656 0.765052 16.8397 0.173293C17.1337 -0.00545435 17.4545 -0.114655 17.7983 -0.154919C18.1942 -0.201284 18.5144 -0.0146053 18.7015 0.377053C18.8755 0.743089 18.9476 1.13963 19.0533 1.52641C19.1751 1.97175 19.3051 2.41526 19.4238 2.86183C19.4474 2.95029 19.5021 2.95578 19.5705 2.96127C20.0759 3.00092 20.5781 3.05888 21.0754 3.16015C21.2315 3.19187 21.4099 3.27972 21.5392 3.23458C21.6585 3.19248 21.7169 2.9997 21.817 2.88562C22.1769 2.47261 22.5431 2.0657 22.9055 1.65513C23.1759 1.34888 23.4208 1.02006 23.749 0.764442C24.0542 0.526518 24.4732 0.500286 24.7368 0.693675C24.5005 0.65158 24.2668 0.625958 24.0455 0.756511C23.7279 0.943799 23.4886 1.20796 23.2871 1.50566C22.6879 2.39269 22.3062 3.37916 21.9401 4.37234C21.9022 4.47483 21.9619 4.51204 22.0234 4.55597C22.6568 5.00436 23.3499 5.13247 24.1077 4.94091C24.3551 4.87808 24.5689 4.74386 24.8039 4.65541L24.8033 4.65663ZM13.0273 11.3685C13.23 11.8608 13.5215 12.297 13.9113 12.6624C15.2254 13.8954 17.1456 14.1065 18.7102 13.1975C20.3394 12.2513 21.0574 10.2253 20.3649 8.52563C20.3861 8.51159 20.4047 8.49268 20.4283 8.48353C20.851 8.32065 21.2719 8.1541 21.6977 7.99914C21.8201 7.95461 21.8332 7.90703 21.776 7.80026C21.5939 7.46168 21.3222 7.22803 20.9573 7.09443C20.4234 6.89921 19.872 6.91751 19.3225 6.98095C18.579 7.06697 17.8548 7.24572 17.1418 7.46534C15.8632 7.85822 14.6193 8.33468 13.4413 8.96792C12.8589 9.28088 12.3038 9.63045 11.8575 10.1228C11.4316 10.5925 11.2744 11.1233 11.4783 11.7382C11.5187 11.8614 11.564 11.8962 11.6952 11.8413C12.0607 11.6888 12.4318 11.5497 12.8017 11.4063C12.8738 11.3783 12.9478 11.3526 13.028 11.3679L13.0273 11.3685Z" fill="#80BAFF"/>
<path d="M5.57214 5.81213C5.70268 6.21172 5.83322 6.61131 5.96376 7.0109C6.33922 8.1572 6.68546 9.31205 7.00808 10.4742C7.24927 11.3423 7.47429 12.2147 7.69497 13.0883C7.94983 14.098 8.17299 15.1143 8.39367 16.1313C8.5298 16.7578 8.65164 17.3874 8.76539 18.0182C8.88164 18.6637 8.98483 19.3115 9.08615 19.9594C9.19369 20.647 9.2975 21.3351 9.39074 22.0245C9.44545 22.4296 9.47715 22.8371 9.52066 23.2434C9.57288 23.7253 9.63752 24.2061 9.64188 24.6917C8.2625 24.8875 6.93659 24.6178 5.62125 24.2512C4.9959 24.0767 4.42712 23.8156 3.96961 23.3367C3.12234 22.4485 2.47088 21.4346 1.95059 20.3395C1.16859 18.6948 0.648921 16.9671 0.322571 15.182C0.205085 14.5384 0.0751666 13.896 0.0297885 13.2421C-0.0740218 11.7529 0.0683289 10.3101 0.860271 8.98933C1.3184 8.22553 1.97981 7.6655 2.73321 7.20002C3.61031 6.65768 4.54398 6.22392 5.49755 5.82983C5.52055 5.82006 5.54727 5.81823 5.57276 5.81274L5.57214 5.81213ZM4.24063 13.264C4.23752 12.8248 4.13061 12.4417 3.85274 12.1141C3.55064 11.7578 3.05458 11.7291 2.7158 12.05C2.14578 12.5893 2.09605 13.7447 2.61759 14.3335C3.01791 14.7855 3.55001 14.7678 3.91801 14.2877C4.15423 13.979 4.23628 13.6227 4.24125 13.264H4.24063Z" fill="#1781FE"/>
<path d="M18.1729 37.6542C18.4253 37.75 18.636 37.9159 18.8685 38.0464C19.8047 38.5723 20.7843 38.9945 21.8255 39.2782C22.4658 39.4526 23.1123 39.5984 23.7637 39.7198C24.4345 39.8449 25.1058 39.9712 25.7859 40.0401C26.0152 40.0633 26.2434 40.0999 26.4721 40.131C26.17 41.0004 25.9232 41.8837 25.7455 42.7854C25.6211 43.4168 25.5285 44.0549 25.3277 44.6699C25.2071 45.039 25.0455 45.3879 24.8255 45.7112C24.7646 45.8009 24.7018 45.8369 24.5893 45.8363C22.5087 45.8326 20.4281 45.8333 18.347 45.8333C17.4462 45.8333 16.5455 45.8302 15.6454 45.8363C15.5068 45.8369 15.4639 45.8125 15.4999 45.6704C15.651 45.0725 15.9425 44.5802 16.4821 44.2288C17.2057 43.7572 17.9945 43.6614 18.8281 43.7706C18.9381 43.7853 18.9593 43.7682 18.9549 43.6639C18.9114 42.6341 18.8753 41.6031 18.7417 40.5794C18.6199 39.6478 18.406 38.7334 18.2046 37.8171C18.1928 37.7628 18.1835 37.7072 18.1735 37.6523L18.1729 37.6542Z" fill="#1781FE"/>
<path d="M31.1745 42.0209C31.2329 42.0124 31.2709 42.0441 31.3088 42.0813C31.7651 42.5206 32.2996 42.8567 32.8442 43.1746C33.551 43.5876 34.2932 43.9298 35.0808 44.1683C35.9019 44.4173 36.7312 44.6399 37.5716 44.8187C38.3337 44.9809 39.1033 45.1127 39.8759 45.2164C40.3384 45.2787 40.8015 45.3415 41.2677 45.3781C41.7744 45.4177 42.2785 45.4836 42.7851 45.5239C43.2003 45.5568 43.6174 45.5678 44.0339 45.5898C44.0986 45.5928 44.1719 45.569 44.2142 45.6447C43.7107 45.7728 43.1979 45.8308 42.6794 45.832C40.914 45.8356 39.1493 45.8344 37.3839 45.8344C34.4076 45.8344 31.4312 45.8332 28.4543 45.8381C28.2995 45.8381 28.2647 45.7978 28.2765 45.6532C28.3225 45.0712 28.6246 44.632 29.0654 44.2727C29.332 44.0555 29.6273 43.8773 29.9369 43.7224C30.4329 43.4741 30.7319 43.055 30.9532 42.5724C31.0359 42.3925 31.1012 42.2052 31.1751 42.0209H31.1745Z" fill="#1781FE"/>
<path d="M24.8029 4.6566C24.5679 4.74506 24.3541 4.87927 24.1067 4.94211C23.349 5.13366 22.6558 5.00555 22.0224 4.55716C21.9609 4.51323 21.9012 4.47602 21.9391 4.37353C22.3053 3.38035 22.6863 2.39388 23.2862 1.50686C23.4876 1.20915 23.7269 0.944991 24.0445 0.757703C24.2658 0.62715 24.4996 0.652772 24.7358 0.694867L24.7376 0.695477C24.7513 0.702797 24.765 0.710728 24.7781 0.718049C25.4475 1.14753 25.8062 1.76369 25.8522 2.53786C25.9019 3.3773 25.5613 4.05569 24.885 4.57119C24.8539 4.59498 24.8098 4.60901 24.8029 4.65599V4.6566Z" fill="#1781FE"/>
<path d="M24.7782 0.718294C24.7645 0.711078 24.7508 0.703261 24.7378 0.696045C24.7515 0.703261 24.7651 0.711078 24.7782 0.718294Z" fill="#1781FE"/>
<path d="M20.3649 8.52625C21.0574 10.2253 20.3394 12.2513 18.7102 13.1981C17.1456 14.1071 15.2254 13.896 13.9113 12.6631C13.5215 12.297 13.23 11.8608 13.0273 11.3691C13.0305 11.3069 13.0864 11.3051 13.1262 11.2892C13.312 11.2142 13.4985 11.1397 13.6863 11.0684C15.5598 10.3503 17.4334 9.63106 19.3082 8.91546C19.6588 8.78186 20.0013 8.62691 20.3643 8.52747L20.3649 8.52625ZM18.5231 10.2716C18.5231 10.5858 18.7531 10.8201 19.0595 10.8164C19.3554 10.8128 19.5836 10.584 19.5848 10.2899C19.586 9.98612 19.3567 9.7543 19.0552 9.75308C18.7593 9.75247 18.5237 9.98185 18.5231 10.2716Z" fill="#002F67"/>
<path d="M20.3649 8.52623C20.0013 8.62567 19.6588 8.78062 19.3088 8.91423C17.434 9.62922 15.5605 10.3485 13.6869 11.0671C13.4998 11.1391 13.3133 11.2135 13.1268 11.288C13.0864 11.3044 13.0311 11.3063 13.028 11.3679C12.9478 11.3526 12.8738 11.3783 12.8017 11.4063C12.4318 11.5491 12.0607 11.6882 11.6952 11.8413C11.5641 11.8962 11.5187 11.8614 11.4783 11.7382C11.275 11.1233 11.4323 10.5925 11.8575 10.1228C12.3038 9.63044 12.8589 9.28087 13.4414 8.96791C14.6193 8.33528 15.8632 7.85821 17.1419 7.46533C17.8548 7.24632 18.5797 7.06697 19.3225 6.98095C19.872 6.9175 20.424 6.8992 20.9573 7.09442C21.3216 7.22741 21.5939 7.46106 21.776 7.80026C21.8338 7.90702 21.8208 7.9546 21.6977 7.99914C21.2719 8.15348 20.851 8.32003 20.4283 8.48352C20.4053 8.49268 20.3861 8.51159 20.3649 8.52562V8.52623Z" fill="#1781FE"/>
<path d="M4.24066 13.264C4.23631 13.6227 4.15425 13.979 3.91741 14.2877C3.54942 14.7678 3.01731 14.7855 2.61699 14.3335C2.09545 13.7447 2.14518 12.5893 2.7152 12.05C3.05399 11.7291 3.55004 11.7578 3.85214 12.1141C4.13001 12.4417 4.23693 12.8248 4.24003 13.264H4.24066Z" fill="#002F67"/>
<path d="M18.5229 10.2716C18.5229 9.98183 18.7585 9.75184 19.0551 9.75306C19.3572 9.75428 19.5859 9.9861 19.5847 10.2899C19.5834 10.584 19.3553 10.8127 19.0594 10.8164C18.7529 10.8201 18.5229 10.5864 18.5229 10.2716Z" fill="#FEFEFE"/>
</svg>
