<svg width="295" height="180" viewBox="0 0 295 180" fill="none" xmlns="http://www.w3.org/2000/svg">
    <mask id="mask0_207_15050" style="mask-type:alpha" maskUnits="userSpaceOnUse" x="0" y="0" width="295" height="180">
    <rect width="295" height="180" fill="#D9D9D9"/>
    </mask>
    <g mask="url(#mask0_207_15050)">
    <path d="M218.652 33.872C224.662 33.872 229.534 29.0002 229.534 22.9905C229.534 16.9808 224.662 12.109 218.652 12.109C212.643 12.109 207.771 16.9808 207.771 22.9905C207.771 29.0002 212.643 33.872 218.652 33.872Z" fill="#E7F2FF"/>
    <path d="M82.2445 173C96.6248 173 108.282 161.342 108.282 146.962C108.282 132.582 96.6248 120.924 82.2445 120.924C67.8641 120.924 56.2065 132.582 56.2065 146.962C56.2065 161.342 67.8641 173 82.2445 173Z" fill="#E7F2FF"/>
    <g opacity="0.6">
    <path d="M172.78 114.213L178.764 120.895L175.353 117.236L169.369 110.555L172.78 114.213Z" fill="#3D65DA"/>
    <path d="M203.085 88.7146L209.069 95.3959C209.201 95.546 209.303 95.7313 209.356 95.9431L203.372 89.2618C203.319 89.05 203.222 88.8646 203.085 88.7146Z" fill="#3D65DA"/>
    <path d="M203.372 89.262L209.356 95.9433L210.645 100.939L204.661 94.2575L203.372 89.262Z" fill="#3D65DA"/>
    <path d="M169.493 143.878L163.509 137.196C163.769 137.483 164.158 137.651 164.603 137.629L170.588 144.31C170.142 144.332 169.749 144.169 169.493 143.878Z" fill="#3D65DA"/>
    <path d="M170.075 137.408L176.059 144.089L170.592 144.31L164.608 137.629L170.075 137.408Z" fill="#3D65DA"/>
    <path d="M227.573 96.4153L233.557 103.097C233.95 103.538 233.994 104.226 233.641 104.844L227.657 98.1628C228.005 97.545 227.966 96.8566 227.573 96.4153Z" fill="#3D65DA"/>
    <path d="M215.314 110.701L221.298 117.382C217.489 113.128 211.342 111.102 204.59 112.536C193.826 114.822 185.614 125.069 186.254 135.418C186.492 139.288 187.935 142.629 190.217 145.175L184.233 138.494C181.955 135.947 180.508 132.611 180.27 128.737C179.63 118.392 187.842 108.145 198.606 105.855C205.353 104.421 211.501 106.446 215.314 110.701Z" fill="url(#paint0_linear_207_15050)"/>
    <path d="M227.657 98.163L233.641 104.844L230.764 109.84L224.78 103.159L227.657 98.163Z" fill="#3D65DA"/>
    <path d="M177.948 159.46L171.964 152.779C172.026 152.849 172.097 152.911 172.172 152.964L178.156 159.645C178.076 159.593 178.01 159.526 177.948 159.46Z" fill="#3D65DA"/>
    <path d="M178.363 157.342L184.347 164.023L178.156 159.645L172.172 152.964L178.363 157.342Z" fill="#3D65DA"/>
    <path d="M224.78 103.159L230.764 109.84C232.847 112.307 234.44 115.197 235.446 118.454L229.462 111.773C228.456 108.516 226.862 105.626 224.78 103.159Z" fill="#3D65DA"/>
    <path d="M184.754 153.101L190.738 159.782L186.408 163.767L180.424 157.086L184.754 153.101Z" fill="#3D65DA"/>
    <path d="M180.424 157.086L186.408 163.767C186.148 164.01 185.835 164.169 185.517 164.235C185.102 164.323 184.678 164.257 184.347 164.023L178.363 157.342C178.694 157.576 179.118 157.642 179.533 157.554C179.85 157.487 180.159 157.329 180.424 157.086Z" fill="#3D65DA"/>
    <path d="M236.006 111.989L241.99 118.67C242.18 118.882 242.299 119.16 242.317 119.482L236.333 112.801C236.315 112.479 236.196 112.201 236.006 111.989Z" fill="#3D65DA"/>
    <path d="M194.863 154.941L200.848 161.622C197.251 161.614 193.835 160.978 190.737 159.782L184.753 153.101C187.851 154.297 191.267 154.932 194.863 154.941Z" fill="#3D65DA"/>
    <path d="M236.337 112.801L242.321 119.482L242.811 127.43L236.827 120.744L236.337 112.801Z" fill="#3D65DA"/>
    <path d="M235.604 122.536L241.593 129.217L236.236 131.3L230.251 124.615L235.604 122.536Z" fill="#3D65DA"/>
    <path d="M236.827 120.745L242.811 127.426C242.856 128.176 242.348 128.931 241.593 129.218L235.609 122.536C236.368 122.249 236.876 121.495 236.827 120.745Z" fill="#3D65DA"/>
    <path d="M202.419 167.148L196.435 160.466C196.752 160.819 197.264 160.983 197.816 160.863L203.8 167.545C203.248 167.664 202.736 167.501 202.419 167.148Z" fill="#3D65DA"/>
    <path d="M230.252 124.615L236.236 131.296C235.653 134.888 234.453 138.392 232.723 141.653L226.739 134.972C228.469 131.711 229.669 128.211 230.252 124.615Z" fill="#3D65DA"/>
    <path d="M217.851 146.067L223.835 152.748C220.976 155.21 217.728 157.263 214.21 158.785L208.226 152.104C211.744 150.586 214.991 148.529 217.851 146.067Z" fill="#3D65DA"/>
    <path d="M208.221 152.104L214.21 158.785L213.561 164.191L207.577 157.509L208.221 152.104Z" fill="#3D65DA"/>
    <path d="M206.082 159.107L212.066 165.789L203.8 167.545L197.816 160.864L206.082 159.107Z" fill="#3D65DA"/>
    <path d="M207.578 157.509L213.562 164.191C213.478 164.954 212.847 165.62 212.066 165.788L206.082 159.107C206.863 158.939 207.494 158.273 207.578 157.509Z" fill="#3D65DA"/>
    <path d="M230.172 138.67L236.156 145.352C236.62 145.868 236.58 146.702 236.068 147.337L230.084 140.656C230.591 140.021 230.636 139.187 230.172 138.67Z" fill="#3D65DA"/>
    <path d="M222.55 148.128L228.535 154.813L223.835 152.748L217.851 146.067L222.55 148.128Z" fill="#3D65DA"/>
    <path d="M230.088 140.656L236.072 147.337L230.573 154.195L224.589 147.514L230.088 140.656Z" fill="#3D65DA"/>
    <path d="M224.59 147.514L230.574 154.195C230.283 154.566 229.881 154.809 229.471 154.897C229.153 154.963 228.827 154.941 228.54 154.813L222.556 148.132C222.843 148.26 223.169 148.286 223.487 148.215C223.902 148.127 224.299 147.884 224.59 147.514Z" fill="#3D65DA"/>
    <path d="M234.929 111.552C235.702 111.53 236.289 112.051 236.337 112.797L236.827 120.744C236.871 121.495 236.364 122.249 235.609 122.536L230.256 124.615C229.674 128.207 228.473 131.711 226.743 134.972L230.155 138.644C230.64 139.16 230.605 140.007 230.088 140.652L224.59 147.51C224.298 147.88 223.897 148.123 223.486 148.211C223.169 148.277 222.842 148.255 222.555 148.127L217.851 146.062C214.991 148.524 211.743 150.577 208.226 152.099L207.582 157.505C207.498 158.268 206.867 158.935 206.086 159.103L197.82 160.859C197.039 161.027 196.346 160.638 196.157 159.932L194.868 154.937C191.271 154.928 187.856 154.292 184.758 153.096L180.429 157.081C180.168 157.324 179.855 157.483 179.537 157.549C179.122 157.637 178.699 157.571 178.368 157.337L172.176 152.964C171.594 152.554 171.47 151.737 171.88 151.031L174.745 146.027C172.679 143.573 171.068 140.669 170.076 137.408L164.608 137.629C163.836 137.668 163.235 137.148 163.187 136.397L162.693 128.454C162.648 127.704 163.169 126.949 163.924 126.645L169.277 124.566C169.846 120.974 171.064 117.483 172.776 114.213L169.365 110.555C168.893 110.021 168.915 109.173 169.431 108.534L174.943 101.671C175.234 101.305 175.636 101.067 176.051 100.978C176.369 100.912 176.691 100.934 176.978 101.053L181.664 103.119C184.537 100.652 187.789 98.5998 191.289 97.095L191.933 91.689C192.03 90.9212 192.661 90.2416 193.443 90.0739L201.721 88.3175C202.503 88.1498 203.2 88.5514 203.372 89.2575L204.66 94.253C208.27 94.2442 211.686 94.8797 214.771 96.08L219.1 92.095C219.365 91.8567 219.678 91.6979 219.996 91.6317C220.411 91.5434 220.83 91.6096 221.161 91.8391L227.352 96.2124C227.948 96.6184 228.072 97.4348 227.661 98.1541L224.784 103.15C226.867 105.617 228.46 108.507 229.466 111.764L234.934 111.543L234.929 111.552ZM200.918 143.344C211.695 141.053 219.908 130.793 219.268 120.449C218.632 110.105 209.382 103.569 198.606 105.859C187.842 108.145 179.63 118.392 180.27 128.741C180.905 139.085 190.155 145.634 200.918 143.348V143.344Z" fill="url(#paint1_linear_207_15050)"/>
    </g>
    <path d="M70.8702 54.676L81.4097 66.4435L75.4016 60.0001L64.8621 48.2325L70.8702 54.676Z" fill="#3D65DA"/>
    <path d="M124.244 9.76636L134.784 21.5339C135.017 21.7982 135.196 22.1247 135.289 22.4977L124.749 10.7301C124.656 10.3571 124.485 10.0306 124.244 9.76636Z" fill="#3D65DA"/>
    <path d="M124.749 10.7301L135.289 22.4977L137.558 31.2962L127.019 19.5286L124.749 10.7301Z" fill="#3D65DA"/>
    <path d="M65.0796 106.923L54.54 95.1552C54.9986 95.6604 55.6826 95.9557 56.4676 95.9169L67.0071 107.684C66.2221 107.723 65.5304 107.436 65.0796 106.923Z" fill="#3D65DA"/>
    <path d="M66.1055 95.5283L76.645 107.296L67.0149 107.685L56.4753 95.9169L66.1055 95.5283Z" fill="#3D65DA"/>
    <path d="M167.374 23.3296L177.913 35.0972C178.605 35.8744 178.683 37.0869 178.061 38.1751L167.521 26.4075C168.135 25.3194 168.066 24.1068 167.374 23.3296Z" fill="#3D65DA"/>
    <path d="M145.782 48.489L156.322 60.2566C149.614 52.7639 138.787 49.1963 126.895 51.7223C107.938 55.7485 93.4732 73.7963 94.6002 92.0228C95.0199 98.8393 97.5615 104.723 101.58 109.208L91.0404 97.4403C87.0298 92.9555 84.4804 87.0795 84.0607 80.2552C82.9336 62.0365 97.3983 43.9887 116.355 39.9548C128.24 37.4287 139.067 40.9963 145.782 48.489Z" fill="url(#paint2_linear_207_15050)"/>
    <path d="M167.521 26.4072L178.061 38.1748L172.993 46.9733L162.453 35.2057L167.521 26.4072Z" fill="#3D65DA"/>
    <path d="M79.9717 134.368L69.4321 122.6C69.5409 122.724 69.6653 122.833 69.7974 122.926L80.337 134.694C80.1971 134.601 80.0805 134.484 79.9717 134.368Z" fill="#3D65DA"/>
    <path d="M80.7022 130.637L91.2417 142.404L80.3369 134.694L69.7974 122.926L80.7022 130.637Z" fill="#3D65DA"/>
    <path d="M162.453 35.2058L172.993 46.9734C176.662 51.3182 179.467 56.4092 181.24 62.1453L170.7 50.3778C168.928 44.6416 166.122 39.5506 162.453 35.2058Z" fill="#3D65DA"/>
    <path d="M91.9571 123.167L102.497 134.935L94.8718 141.953L84.3323 130.186L91.9571 123.167Z" fill="#3D65DA"/>
    <path d="M84.3324 130.186L94.8719 141.953C94.4134 142.381 93.8615 142.661 93.3019 142.777C92.5713 142.933 91.8251 142.816 91.2422 142.404L80.7026 130.637C81.2856 131.049 82.0317 131.165 82.7624 131.01C83.322 130.893 83.8661 130.613 84.3324 130.186Z" fill="#3D65DA"/>
    <path d="M182.227 50.7587L192.766 62.5262C193.1 62.8993 193.31 63.389 193.341 63.9564L182.802 52.1888C182.771 51.6214 182.561 51.1317 182.227 50.7587Z" fill="#3D65DA"/>
    <path d="M109.764 126.408L120.303 138.176C113.969 138.16 107.953 137.041 102.497 134.935L91.957 123.167C97.4133 125.274 103.429 126.393 109.764 126.408Z" fill="#3D65DA"/>
    <path d="M182.81 52.1887L193.349 63.9563L194.212 77.9546L183.672 66.1792L182.81 52.1887Z" fill="#3D65DA"/>
    <path d="M181.519 69.3348L192.067 81.1024L182.631 84.771L172.091 72.9957L181.519 69.3348Z" fill="#3D65DA"/>
    <path d="M183.672 66.1792L194.212 77.9468C194.29 79.2681 193.396 80.5972 192.067 81.1024L181.527 69.3348C182.864 68.8296 183.758 67.5005 183.672 66.1792Z" fill="#3D65DA"/>
    <path d="M123.071 147.907L112.531 136.14C113.091 136.761 113.992 137.049 114.964 136.839L125.503 148.607C124.532 148.817 123.63 148.529 123.071 147.907Z" fill="#3D65DA"/>
    <path d="M172.091 72.9956L182.631 84.7632C181.605 91.09 179.491 97.2614 176.444 103.005L165.904 91.2377C168.951 85.4938 171.065 79.3302 172.091 72.9956Z" fill="#3D65DA"/>
    <path d="M150.251 110.778L160.79 122.545C155.754 126.882 150.033 130.497 143.838 133.178L133.299 121.411C139.494 118.737 145.214 115.115 150.251 110.778Z" fill="#3D65DA"/>
    <path d="M133.291 121.411L143.838 133.178L142.696 142.7L132.156 130.932L133.291 121.411Z" fill="#3D65DA"/>
    <path d="M129.521 133.746L140.061 145.513L125.503 148.607L114.963 136.839L129.521 133.746Z" fill="#3D65DA"/>
    <path d="M132.156 130.932L142.696 142.699C142.548 144.044 141.436 145.218 140.061 145.513L129.521 133.746C130.897 133.45 132.008 132.277 132.156 130.932Z" fill="#3D65DA"/>
    <path d="M171.951 97.7511L182.491 109.519C183.307 110.428 183.237 111.897 182.335 113.016L171.796 101.249C172.69 100.129 172.767 98.6605 171.951 97.7511Z" fill="#3D65DA"/>
    <path d="M158.528 114.408L169.068 126.183L160.79 122.545L150.251 110.778L158.528 114.408Z" fill="#3D65DA"/>
    <path d="M171.804 101.249L182.344 113.016L172.659 125.095L162.12 113.327L171.804 101.249Z" fill="#3D65DA"/>
    <path d="M162.119 113.327L172.659 125.095C172.146 125.748 171.439 126.175 170.716 126.331C170.156 126.447 169.581 126.408 169.076 126.183L158.536 114.415C159.041 114.641 159.617 114.687 160.176 114.563C160.907 114.408 161.606 113.98 162.119 113.327Z" fill="#3D65DA"/>
    <path d="M180.33 49.9891C181.691 49.9502 182.724 50.8674 182.81 52.1809L183.673 66.1792C183.75 67.5006 182.857 68.8297 181.527 69.3349L172.099 72.9957C171.073 79.3226 168.959 85.4939 165.912 91.2378L171.921 97.7045C172.776 98.6139 172.713 100.106 171.804 101.241L162.119 113.32C161.606 113.972 160.899 114.4 160.176 114.555C159.617 114.672 159.042 114.633 158.536 114.408L150.251 110.77C145.214 115.107 139.494 118.721 133.299 121.403L132.164 130.924C132.017 132.269 130.905 133.443 129.529 133.738L114.971 136.831C113.596 137.127 112.375 136.443 112.041 135.199L109.772 126.401C103.437 126.385 97.4211 125.266 91.9648 123.16L84.34 130.178C83.8814 130.606 83.3295 130.885 82.7699 131.002C82.0393 131.157 81.2931 131.041 80.7102 130.629L69.8054 122.926C68.7794 122.204 68.5618 120.766 69.2846 119.522L74.329 110.708C70.6914 106.386 67.8545 101.272 66.1057 95.5282L56.4755 95.9169C55.1153 95.9868 54.0583 95.0697 53.9728 93.7483L53.1022 79.7578C53.0245 78.4365 53.9417 77.1074 55.2708 76.5711L64.6988 72.9102C65.7015 66.5834 67.8467 60.4354 70.8624 54.6759L64.8543 48.2325C64.0226 47.292 64.0615 45.7997 64.9709 44.6727L74.6787 32.5864C75.1917 31.9413 75.899 31.5216 76.6296 31.3662C77.1893 31.2496 77.7567 31.2884 78.2619 31.4983L86.5163 35.1358C91.5762 30.791 97.3045 27.1768 103.468 24.5263L104.603 15.005C104.774 13.6526 105.885 12.4556 107.261 12.1603L121.842 9.06683C123.218 8.77147 124.446 9.47877 124.749 10.7224L127.019 19.5209C133.377 19.5053 139.393 20.6245 144.826 22.7387L152.45 15.7201C152.917 15.3004 153.469 15.0206 154.028 14.904C154.759 14.7485 155.497 14.8651 156.08 15.2693L166.985 22.9718C168.034 23.6869 168.252 25.1248 167.529 26.3918L162.461 35.1902C166.13 39.5351 168.936 44.6261 170.708 50.3622L180.338 49.9736L180.33 49.9891ZM120.428 105.982C139.408 101.948 153.873 83.8772 152.746 65.6585C151.627 47.4397 135.335 35.9286 116.355 39.9626C97.3978 43.9887 82.9331 62.0365 84.0602 80.263C85.1794 98.4818 101.471 110.016 120.428 105.99V105.982Z" fill="url(#paint3_linear_207_15050)"/>
    </g>
    <defs>
    <linearGradient id="paint0_linear_207_15050" x1="167.742" y1="138.024" x2="221.298" y2="125.286" gradientUnits="userSpaceOnUse">
    <stop stop-color="#559AFF"/>
    <stop offset="0.17" stop-color="#4D8AF3"/>
    <stop offset="0.45" stop-color="#4475E5"/>
    <stop offset="0.73" stop-color="#3E69DC"/>
    <stop offset="1" stop-color="#3D65DA"/>
    </linearGradient>
    <linearGradient id="paint1_linear_207_15050" x1="174.925" y1="101.389" x2="223.769" y2="147.02" gradientUnits="userSpaceOnUse">
    <stop stop-color="#559AFF"/>
    <stop offset="0.51" stop-color="#5498FD"/>
    <stop offset="0.69" stop-color="#5191F8"/>
    <stop offset="0.83" stop-color="#4B85F0"/>
    <stop offset="0.93" stop-color="#4474E5"/>
    <stop offset="1" stop-color="#3D65DA"/>
    </linearGradient>
    <linearGradient id="paint2_linear_207_15050" x1="55.8185" y1="89.0569" x2="156.322" y2="74.1771" gradientUnits="userSpaceOnUse">
    <stop stop-color="#559AFF"/>
    <stop offset="0.17" stop-color="#4D8AF3"/>
    <stop offset="0.45" stop-color="#4475E5"/>
    <stop offset="0.73" stop-color="#3E69DC"/>
    <stop offset="1" stop-color="#3D65DA"/>
    </linearGradient>
    <linearGradient id="paint3_linear_207_15050" x1="74.6476" y1="32.089" x2="160.674" y2="112.457" gradientUnits="userSpaceOnUse">
    <stop stop-color="#559AFF"/>
    <stop offset="0.51" stop-color="#5498FD"/>
    <stop offset="0.69" stop-color="#5191F8"/>
    <stop offset="0.83" stop-color="#4B85F0"/>
    <stop offset="0.93" stop-color="#4474E5"/>
    <stop offset="1" stop-color="#3D65DA"/>
    </linearGradient>
    </defs>
    </svg>
    